<?xml version="1.0" standalone="no"?>
<!DOCTYPE svg PUBLIC "-//W3C//DTD SVG 20010904//EN"
 "http://www.w3.org/TR/2001/REC-SVG-20010904/DTD/svg10.dtd">
<svg version="1.0" xmlns="http://www.w3.org/2000/svg"
 width="176.000000pt" height="177.000000pt" viewBox="0 0 176.000000 177.000000"
 preserveAspectRatio="xMidYMid meet">

<g transform="translate(0.000000,177.000000) scale(0.100000,-0.100000)"
fill="#000000" stroke="none">
<path d="M756 1759 c-32 -5 -66 -15 -75 -23 -14 -13 -59 -97 -92 -171 -18 -40
-49 -141 -49 -160 0 -11 -5 -27 -10 -35 -8 -11 -9 -7 -4 14 5 19 3 27 -4 22
-6 -3 -12 2 -15 11 -3 12 -7 7 -12 -15 -5 -21 -11 -29 -15 -22 -4 7 -12 10
-18 6 -6 -3 -13 -2 -17 4 -4 6 -12 5 -21 -4 -12 -13 -12 -20 6 -52 12 -20 19
-39 16 -41 -7 -8 22 -62 48 -90 25 -27 24 -80 -1 -90 -10 -4 -11 -9 -2 -19 17
-21 1 -34 -44 -34 -33 0 -39 -3 -29 -12 7 -7 27 -18 45 -24 29 -11 30 -13 12
-20 -11 -4 -23 -12 -27 -17 -6 -11 -205 -14 -215 -4 -11 11 6 39 19 30 23 -14
60 -15 56 -1 -3 8 -16 12 -33 10 -26 -4 -28 -2 -22 27 5 22 3 31 -7 31 -20 0
-27 -12 -14 -27 16 -20 -2 -30 -45 -25 -21 2 -34 9 -34 18 0 11 8 13 29 9 29
-7 41 11 13 21 -21 8 -70 -10 -71 -27 -2 -30 -5 -33 -15 -19 -8 11 -12 12 -16
3 -3 -10 -9 -9 -21 3 -11 11 -17 13 -20 5 -2 -6 -12 -11 -22 -11 -15 0 -19
-10 -22 -61 -3 -58 -1 -62 22 -71 14 -6 35 -11 47 -11 13 -1 21 -6 19 -12 -4
-11 -16 -11 -66 0 -31 7 -33 6 -22 -8 7 -9 21 -15 30 -15 53 4 196 -46 189
-65 -2 -6 -44 -33 -93 -60 -49 -26 -93 -52 -97 -56 -12 -12 28 -124 75 -211
99 -186 267 -332 463 -402 76 -28 92 -30 126 -21 34 9 39 8 39 -7 0 -21 43
-30 141 -30 52 0 66 3 66 15 0 8 -3 13 -5 10 -6 -6 -32 15 -32 25 0 5 14 16
32 24 30 15 33 15 42 -1 6 -10 11 -27 11 -38 0 -15 7 -20 25 -20 14 0 25 5 25
11 0 15 31 44 49 44 8 0 22 -7 31 -16 14 -15 20 -14 73 7 280 111 481 354 544
659 49 236 -20 518 -175 716 -88 112 -227 217 -353 264 -24 10 -25 9 -18 -25
9 -49 -12 -45 -26 4 -8 30 -17 42 -40 50 -26 9 -30 8 -30 -9 0 -10 6 -25 13
-32 6 -7 12 -17 12 -23 0 -19 37 -71 58 -81 37 -17 31 -33 -12 -32 -41 0 -75
-16 -69 -34 2 -5 55 -10 118 -11 l115 -2 72 -45 c95 -59 101 -73 73 -184 -12
-47 -20 -93 -16 -101 3 -8 1 -15 -4 -15 -5 0 -16 -15 -24 -34 -19 -46 -75
-106 -142 -152 -45 -31 -52 -39 -37 -45 10 -4 21 -5 25 -3 4 3 3 -10 -2 -27
-5 -18 -7 -35 -5 -39 8 -14 -67 -72 -131 -102 -62 -29 -147 -48 -217 -48 -38
0 -39 0 -32 33 10 46 14 49 46 45 30 -5 40 6 14 16 -27 10 -16 26 13 20 20 -4
29 -2 29 8 0 7 3 22 7 34 6 19 2 22 -43 27 -72 9 -117 36 -195 118 -84 88
-126 171 -126 247 0 42 19 108 33 113 1 0 45 3 97 6 52 3 97 7 98 8 2 2 1 12
-2 23 -7 22 -53 42 -97 42 -36 0 -45 16 -23 41 19 21 73 26 104 9 18 -10 89
11 91 28 1 4 2 24 3 45 2 31 1 35 -7 20 -20 -35 -52 -46 -42 -13 3 11 4 20 1
20 -3 0 -15 -9 -26 -20 -21 -21 -65 -27 -75 -10 -3 6 -1 10 4 10 6 0 11 5 11
11 0 18 89 149 106 156 7 3 11 9 8 14 -6 11 -87 10 -168 -2z m460 -151 c4 -13
12 -26 18 -30 8 -6 8 -8 0 -8 -6 0 -24 10 -38 21 -21 17 -25 24 -14 30 20 13
26 11 34 -13z m-436 -198 c0 -11 -4 -20 -9 -20 -14 0 -23 18 -16 30 10 17 25
11 25 -10z m-720 -500 c8 -5 11 -10 5 -10 -5 0 -17 5 -25 10 -8 5 -10 10 -5
10 6 0 17 -5 25 -10z m822 -152 c-8 -8 -12 -9 -12 -1 0 6 -3 20 -6 30 -7 17
-6 17 12 1 14 -14 15 -20 6 -30z m-282 -447 c0 -18 -18 -21 -30 -6 -10 13 -9
15 9 15 11 0 21 -4 21 -9z m80 -21 c0 -15 -7 -20 -25 -20 -41 0 -30 37 13 39
6 1 12 -8 12 -19z m-290 -25 c0 -7 7 -18 15 -25 21 -17 19 -25 -10 -38 -19 -9
-27 -8 -39 3 -25 26 -30 57 -11 71 19 14 45 8 45 -11z m103 -36 c-16 -16 -53
-1 -53 21 0 14 5 18 17 13 12 -5 14 -3 8 8 -4 8 3 4 16 -8 17 -17 20 -26 12
-34z m90 6 c1 -5 -16 -11 -37 -13 -36 -3 -38 -2 -26 13 14 17 59 17 63 0z m84
-1 c6 -15 8 -15 20 2 13 18 14 17 11 -11 -2 -21 -8 -29 -18 -26 -8 2 -27 6
-43 9 -30 5 -42 16 -32 32 10 16 55 11 62 -6z m103 6 c12 -8 11 -12 -7 -32
-11 -13 -23 -32 -26 -43 -3 -12 -5 -5 -6 17 -1 38 7 68 18 68 3 0 13 -5 21
-10z m84 -26 c22 -9 20 -37 -4 -52 -11 -7 -20 -20 -20 -30 0 -38 -15 -45 -54
-25 -33 17 -35 20 -22 38 12 16 16 17 30 6 14 -11 16 -11 16 2 0 8 6 18 13 20
6 3 2 6 -10 6 -26 1 -29 11 -11 29 13 13 37 15 62 6z m74 -32 c14 -9 7 -38
-15 -60 -7 -7 -13 -22 -13 -32 0 -23 -13 -32 -34 -24 -26 10 -19 29 22 58 35
27 36 28 9 22 -29 -7 -30 -2 -4 32 11 14 17 15 35 4z m82 -96 c0 -3 -4 -8 -10
-11 -5 -3 -10 -1 -10 4 0 6 5 11 10 11 6 0 10 -2 10 -4z"/>
<path d="M360 246 c0 -8 5 -18 10 -21 6 -3 10 3 10 14 0 12 -4 21 -10 21 -5 0
-10 -6 -10 -14z"/>
<path d="M1010 1735 c0 -8 -6 -15 -14 -15 -23 0 -29 -19 -16 -50 9 -21 9 -34
0 -49 -8 -17 -8 -21 3 -21 8 0 19 12 26 26 11 26 12 26 26 8 14 -18 14 -18 16
4 1 12 2 30 3 40 1 9 5 23 10 31 6 10 5 12 -2 7 -8 -5 -12 0 -12 13 0 14 -6
21 -20 21 -11 0 -20 -7 -20 -15z"/>
<path d="M921 1706 c-6 -7 -9 -21 -5 -30 3 -9 2 -16 -4 -16 -5 0 -9 -12 -9
-27 0 -23 1 -24 10 -7 6 10 15 22 20 25 5 4 7 16 4 28 -3 12 -1 19 4 15 5 -3
9 2 9 10 0 20 -14 21 -29 2z"/>
<path d="M464 1615 c11 -8 22 -12 25 -9 6 6 -19 24 -34 24 -5 -1 -1 -7 9 -15z"/>
<path d="M1020 1598 c0 -9 -7 -21 -15 -28 -16 -13 -21 -50 -7 -50 11 0 36 80
28 88 -3 3 -6 -2 -6 -10z"/>
<path d="M249 1493 c-1 -5 -1 -12 0 -17 4 -22 -12 -44 -44 -59 -22 -11 -48
-38 -72 -74 -41 -65 -97 -199 -90 -217 3 -7 -1 -20 -9 -31 -21 -28 -18 -32 32
-33 33 -2 43 1 38 10 -5 8 -2 9 9 5 9 -3 19 -1 23 5 5 8 -4 9 -28 5 -32 -5
-35 -3 -31 14 6 21 11 23 33 9 9 -6 17 -5 22 3 5 8 11 8 16 2 8 -12 282 -14
282 -3 0 5 -11 8 -24 8 -25 0 -51 22 -39 33 3 4 14 7 24 7 16 0 17 4 7 30 -11
34 -27 48 -37 32 -4 -6 -16 -9 -27 -6 -18 5 -20 13 -19 69 1 74 21 105 67 105
16 0 31 6 34 15 4 10 13 13 25 10 13 -4 19 -2 19 8 0 18 -34 49 -52 46 -7 -2
-23 0 -35 5 -18 6 -28 0 -50 -24 -20 -23 -33 -29 -46 -24 -15 5 -17 13 -12 40
3 21 2 34 -5 34 -5 0 -11 -3 -11 -7z m131 -73 c0 -23 -25 -27 -33 -6 -5 13 5
23 26 25 4 1 7 -8 7 -19z m-120 -10 c0 -5 -2 -10 -4 -10 -3 0 -8 5 -11 10 -3
6 -1 10 4 10 6 0 11 -4 11 -10z m-30 -19 c0 -6 -4 -13 -10 -16 -5 -3 -10 -17
-10 -31 0 -13 -6 -24 -13 -24 -9 0 -11 12 -9 40 3 31 8 40 23 40 10 0 19 -4
19 -9z m46 -151 c0 -52 -12 -64 -36 -35 -10 12 -9 22 4 50 9 19 20 35 25 35 4
0 7 -22 7 -50z m-98 24 c25 -11 32 -18 22 -21 -8 -3 -23 -13 -33 -21 -14 -12
-20 -13 -30 -3 -9 9 -9 14 3 21 13 8 12 11 -5 24 -27 20 -4 20 43 0z"/>
<path d="M1132 1414 c-28 -19 -29 -44 -1 -44 14 0 19 5 16 15 -4 8 -2 17 3 20
5 3 11 -4 15 -14 10 -34 46 -37 71 -8 19 22 24 24 34 12 13 -16 80 -21 80 -7
0 13 -103 42 -151 42 -25 0 -55 -7 -67 -16z"/>
<path d="M877 1214 c-12 -12 4 -24 30 -24 21 0 24 2 13 15 -13 16 -32 20 -43
9z"/>
<path d="M980 1200 c0 -5 11 -10 25 -10 14 0 25 5 25 10 0 6 -11 10 -25 10
-14 0 -25 -4 -25 -10z"/>
<path d="M838 1113 c-38 -6 -35 -18 10 -47 44 -27 119 -47 90 -23 -24 19 -13
27 36 27 23 0 52 3 65 7 23 6 23 6 -8 19 -33 14 -151 25 -193 17z"/>
<path d="M310 1081 c0 -7 -4 -10 -8 -7 -4 2 -14 1 -22 -5 -12 -7 -11 -9 5 -10
11 -1 26 -1 34 1 10 1 12 -6 7 -26 -6 -21 -4 -25 7 -21 8 3 19 1 23 -3 5 -5
15 -5 24 0 12 8 11 10 -7 10 -30 0 -40 20 -14 27 12 3 21 10 21 15 0 6 -7 7
-16 4 -10 -4 -25 1 -35 10 -12 11 -19 13 -19 5z"/>
<path d="M1083 1073 c9 -2 23 -2 30 0 6 3 -1 5 -18 5 -16 0 -22 -2 -12 -5z"/>
<path d="M1033 783 c9 -2 23 -2 30 0 6 3 -1 5 -18 5 -16 0 -22 -2 -12 -5z"/>
<path d="M950 50 c0 -5 7 -10 16 -10 8 0 12 5 9 10 -3 6 -10 10 -16 10 -5 0
-9 -4 -9 -10z"/>
</g>
</svg>
